<?xml version="1.0" encoding="utf-8"?>
<!-- Generator: Adobe Illustrator 22.1.0, SVG Export Plug-In . SVG Version: 6.00 Build 0)  -->
<svg version="1.1" id="Layer_1" xmlns="http://www.w3.org/2000/svg" xmlns:xlink="http://www.w3.org/1999/xlink" x="0px" y="0px"
	 viewBox="0 0 138 30" style="enable-background:new 0 0 138 30;" xml:space="preserve">
<style type="text/css">
	.st0{fill:#632A7B;}
</style>
<g>
	<path class="st0" d="M49,23.5c-2.9,0-5.1-2.1-5.1-5.2c0-3.1,2.2-5.2,5.1-5.2c2.9,0,5.1,2.1,5.1,5.2C54,21.4,51.8,23.5,49,23.5
		 M49,6.6c-6.5,0-11.7,5.1-11.7,11.6S42.5,29.9,49,29.9c6.5,0,11.7-5.1,11.7-11.6C60.6,11.7,55.5,6.6,49,6.6"/>
	<path class="st0" d="M70.2,1.4L65,2.9c-0.3,0.1-0.5,0.4-0.5,0.7V8h-2.8C61.3,8,61,8.3,61,8.7v4.2c0,0.4,0.3,0.7,0.7,0.7h2.8v7.8
		c0,6,1.7,8.9,9.8,7.9c0.4-0.1,0.6-0.4,0.6-0.7V24c0-0.4-0.3-0.7-0.7-0.7c-2.3,0-3.1,0-3.1-1.9v-7.8h3.1c0.4,0,0.7-0.3,0.7-0.7V8.7
		c0-0.4-0.3-0.7-0.7-0.7h-3.1V2.1C71.1,1.6,70.6,1.2,70.2,1.4"/>
	<path class="st0" d="M100,23.5c-2.9,0-5.1-2.1-5.1-5.2c0-3.1,2.2-5.2,5.1-5.2c2.9,0,5.1,2.1,5.1,5.2
		C105.1,21.4,102.9,23.5,100,23.5 M100,6.6c-6.5,0-11.7,5.1-11.7,11.6s5.2,11.6,11.7,11.6c6.5,0,11.7-5.1,11.7-11.6
		S106.5,6.6,100,6.6"/>
	<path class="st0" d="M84.1,21.4V1.5c0-0.5-0.5-0.8-0.9-0.7L78,2.4c-0.3,0.1-0.5,0.4-0.5,0.7v18.3c0,6,1.7,8.8,9.8,7.9
		c0.4-0.1,0.6-0.4,0.6-0.7V24c0-0.4-0.3-0.7-0.7-0.7C84.8,23.3,84.1,23.5,84.1,21.4"/>
	<path class="st0" d="M126,23.5c-2.9,0-5.1-2.1-5.1-5.2c0-3.1,2.2-5.2,5.1-5.2c2.9,0,5.1,2.1,5.1,5.2
		C131.1,21.4,128.9,23.5,126,23.5 M126,6.6c-2,0-4,0.5-5.6,1.4V0.7c0-0.5-0.5-0.8-0.9-0.7l-5.2,1.6c-0.3,0.1-0.5,0.4-0.5,0.7v26.8
		c0,0.4,0.3,0.7,0.7,0.7l5.2,0c0.4,0,0.7-0.3,0.7-0.7v-0.5c1.7,0.9,3.6,1.4,5.6,1.4c6.5,0,11.7-5.1,11.7-11.6
		C137.7,11.7,132.5,6.6,126,6.6"/>
	<path class="st0" d="M14.4,1.2C7,1.4,0.8,7.3,0.3,14.7c-0.5,7.6,4.8,14,11.9,15.3v-3.5c0-0.5-0.3-1-0.9-1.2
		c-1.6-0.6-3.1-1.6-4.2-2.9c-0.4-0.4-0.4-1.1,0-1.5c0.5-0.5,1.2-0.4,1.6,0.1c0.9,1.1,2.1,1.9,3.4,2.4c0.6,0.2,1.3-0.3,1.3-0.9
		c0-0.4-0.3-0.8-0.7-0.9c-2.6-0.9-4.4-3.4-4.1-6.3c0.3-3,2.8-5.3,5.7-5.5c3.5-0.2,6.4,2.6,6.4,6.1c0,2.7-1.7,4.9-4.1,5.7
		c-0.4,0.1-0.7,0.5-0.7,0.9c0,0.7,0.7,1.2,1.3,0.9c1.3-0.5,2.5-1.2,3.4-2.3c0.4-0.4,1-0.5,1.4-0.2c0.5,0.4,0.6,1.1,0.2,1.6
		c-1.1,1.4-2.6,2.4-4.2,3c-0.5,0.2-0.9,0.7-0.9,1.2V30c6.8-1.2,12-7.2,12-14.3C29.3,7.5,22.6,1,14.4,1.2"/>
</g>
</svg>
